<?xml version='1.0' encoding='utf-8'?>
<svg xmlns="http://www.w3.org/2000/svg" enable-background="new 0 0 1000 1000" version="1.1" viewBox="0 0 1e3 1e3"> <style type="text/css">.st0{fill:#6C32AD;} .st1{fill:#59298F;} .st2{fill:#FFAD00;} .st3{fill:#E89D00;} .st4{fill:#FFC140;} .st5{fill:#FFCDB2;} .st6{fill:#D9CFFF;} .st7{fill:none;} .st8{fill:#FFFFFF;} .st9{fill:#FFB49F;}</style> <path d="m921 901.1-795-3.7c-1.1 0-2-0.9-2-2s0.9-2 2-2l795 3.7c1.1 0 2 0.9 2 2s-0.9 2-2 2z"/> <path d="m146.1 917.9h-117.1c-0.8 0-1.5-0.7-1.5-1.5s0.7-1.5 1.5-1.5h117.1c0.8 0 1.5 0.7 1.5 1.5s-0.6 1.5-1.5 1.5z"/> <path d="m979.2 927.9h-117.2c-0.8 0-1.5-0.7-1.5-1.5s0.7-1.5 1.5-1.5h117.2c0.8 0 1.5 0.7 1.5 1.5s-0.7 1.5-1.5 1.5z"/> <path class="st0" d="m346.4 326.8s-5.9 46.6-38.5 35-84.7-26.4-106.6 21.8-32.2 82.3-69.3 79.4-89 107 8.9 143.1c160.4 59.3 292.3-229.6 292.3-229.6l-28.1-27.2-58.7-22.5z"/> <path d="m346.4 326.8 58.7 22.4 28.1 27.2s-108.4 237.7-248.4 237.7c-15 0-29.9-2.7-43.9-8-96.6-35.6-47.3-143.1-10.3-143.1 0.5 0 1 0 1.4 0.1 1.5 0.1 2.9 0.2 4.3 0.2 33.7 0 44.1-33.3 65.1-79.6 11.6-25.5 31.7-33.3 52.8-33.3 18.8 0 38.4 6.1 53.7 11.6 3.1 1.2 6.5 1.8 9.8 1.8 24-0.1 28.7-37 28.7-37m0-3c-1.5 0-2.8 1.1-3 2.6-0.1 0.5-4.7 34.3-25.7 34.3-3 0-6-0.6-8.8-1.7-16.4-5.8-35.8-11.7-54.7-11.7-26.3 0-45 11.8-55.6 35.1-2.4 5.3-4.7 10.4-6.9 15.4-16.6 37.6-27.6 62.5-55.5 62.5-1.3 0-2.6-0.1-4-0.2-0.6 0-1.1-0.1-1.7-0.1-9.8 0-20.2 6.3-29.4 17.8-9.3 11.9-15.6 26-18.2 40.9-3.3 18.2-0.8 35.7 7.2 50.5 9.5 17.7 26.2 31.1 49.7 39.8 14.4 5.4 29.6 8.2 45 8.2 32.6 0 66.1-12.7 99.6-37.7 26.6-19.9 53.4-47.6 79.4-82.3 44.3-59 71.8-118.8 72-119.4 0.5-1.2 0.3-2.5-0.6-3.4l-28.1-27.2c-0.3-0.3-0.6-0.5-1-0.6l-58.6-22.6c-0.4-0.1-0.7-0.2-1.1-0.2z"/> <path class="st1" d="m405.1 349.2-58.7-22.4s-2.9 23-16 32.6l17.6 23.6s-41.4 17.9-48.1 48.1c-6.4 28.9-112 32.2-158.4 175.2 79.1 28.8 151.2-26.9 203.9-90.6 27-60.7 58.2-130.8 69.6-156.8l-9.9-9.7z"/> <path class="st2" d="m390.7 411.2c53.7-14.9 349 64.1 370.3 93.8 21.3 29.8-106.8 386.8-141.1 386.8-39.1 0-319.8 0-377.9 1.3-51 1.1-88.3-137.5-71.6-169.7s140.9-292.4 182.3-297.4 38-14.8 38-14.8z"/> <path d="m241.4 894.5c-14.9 0-29.8-11.4-43.2-32.9-25.8-41.5-41.3-115.6-29.1-139 2-3.9 5.6-11 10.5-20.9 58.3-117.1 139.6-273.2 172.9-277.2 26.7-3.2 34.1-8.4 36.1-11.1 0.8-1.1 0.7-1.8 0.7-1.8-0.2-0.4-0.2-0.8 0-1.1 0.2-0.4 0.6-0.6 1-0.7 29.2-8.1 125 11.2 198.1 30.2 78.2 20.3 162.3 48 173.8 64.2 17.8 24.8-59.8 251.2-107.4 343.8-15.7 30.5-27.1 45.3-34.9 45.3-75 0-324 0.1-377.9 1.3l-0.6-0.1zm150.8-482.2c-0.1 0.9-0.4 1.7-0.9 2.4-2.5 4-11.3 9.5-38.4 12.8-10.3 1.2-33.5 21.8-85.2 112.6-34 59.7-67.4 126.9-85.4 163-4.9 9.9-8.5 17-10.5 20.9-10.8 20.8 1.6 91.8 29 136 9 14.4 23.2 31.5 40.6 31.5h0.6c54-1.2 302.9-1.3 378-1.3 3.7 0 12.7-5.7 32.3-43.7 23.7-46.1 54.5-124 78.5-198.5 25-77.8 36.2-132.3 29.1-142.3-9.5-13.3-80.3-39.2-172.1-63-72-18.5-165.7-37.5-195.6-30.4z"/> <path class="st3" d="m733.4 524.4s-351.1-6.7-362.3 4.5c-5.1 5.1-5.6 119.6-10.1 200.2-5.4 97.8-82.8 163.3-82.8 163.3h140.9l314.3-368z"/> <path class="st2" d="m422.4 417.1c67.8-33.6 254.3-5.3 343 70s35.8 135.3 14.6 130.8"/> <path d="m782.3 619.6c-0.9 0-1.8-0.1-2.6-0.3s-1.3-1-1.2-1.8c0.2-0.8 1-1.3 1.8-1.2 7.6 1.6 20.3-6.1 27.8-21.3 4.5-9.3 8.6-24.6 2.3-45.1-6.4-20.6-21.8-41.5-45.9-61.9-40.6-34.4-105.7-61.9-178.6-75.4-67.8-12.6-130.2-10.4-162.7 5.7-0.7 0.4-1.6 0.1-2-0.7-0.4-0.7-0.1-1.6 0.7-2 33.1-16.4 96.2-18.7 164.6-6 73.5 13.6 139.1 41.4 180 76.1 24.5 20.8 40.3 42.1 46.8 63.3 6.6 21.4 2.3 37.5-2.5 47.3-7.5 15.3-19.7 23.3-28.5 23.3z"/> <circle class="st4" cx="502" cy="455.3" r="7.9"/> <circle class="st4" cx="583.9" cy="430.2" r="7.9"/> <circle class="st4" cx="653.8" cy="466.8" r="7.9"/> <circle class="st4" cx="557.2" cy="499.4" r="7.9"/> <circle class="st4" cx="725.9" cy="500.3" r="7.9"/> <circle class="st4" cx="662.1" cy="524.9" r="7.9"/> <path d="m754.2 428.2c-0.3 0-0.7-0.1-0.9-0.3s-20.7-16.6-51.6-31.2c-28.5-13.4-72-28-117.2-21.1-0.8 0.1-1.6-0.4-1.7-1.3-0.1-0.8 0.4-1.6 1.3-1.7 46-7 90.1 7.8 119 21.4 31.3 14.7 52 31.3 52.2 31.5 0.6 0.5 0.7 1.5 0.2 2.1-0.3 0.4-0.8 0.6-1.3 0.6z"/> <path d="m63.2 561.3c-0.6 0-1.2-0.4-1.4-0.9-14.9-36-15.9-65.5-3.2-87.8 17.5-30.5 55.4-36.1 55.8-36.2 0.8-0.1 1.6 0.5 1.7 1.3s-0.5 1.6-1.3 1.7c-0.4 0.1-36.9 5.5-53.6 34.7-12.3 21.4-11.1 50 3.3 85.1 0.3 0.8 0 1.6-0.8 2-0.1 0.1-0.3 0.1-0.5 0.1z"/> <path d="m104.3 855.3c-0.5 0-1-0.3-1.3-0.7-26.9-40.9-22.7-85.4-14.4-115.5 5.4-19.8 13.7-38.7 24.5-56.1 0.5-0.7 1.4-0.8 2.1-0.3 0.6 0.5 0.8 1.3 0.4 2-10.7 17.2-18.8 35.8-24.1 55.3-8.1 29.5-12.2 73.1 14.1 113 0.4 0.7 0.3 1.6-0.4 2.1-0.4 0.1-0.6 0.2-0.9 0.2z"/> <path class="st5" d="m810 561.5c1.3-35-1.9-61.5-21.2-61.8-30.9-0.5-25.2 63.5-69.6 83.7-25.4 11.6-45.7 46.8-36.4 73.9s125.7-53.9 127.2-95.8z"/> <path d="m692.3 664.2c-7 0-9.8-3.4-10.9-6.5-9.8-28.7 12-64.3 37.2-75.8 22.4-10.2 31.7-31.7 39.9-50.7 7.7-17.8 14.3-33.1 30-33.1h0.4c4.8 0 9.5 1.9 12.8 5.5 8 8.4 11 26.3 9.8 57.9-0.8 22.8-32.2 51.5-45.7 62.7-25.4 21.3-53.4 37.2-69.5 39.6-1.3 0.3-2.7 0.4-4 0.4zm96.2-163c-13.7 0-19.7 13.8-27.2 31.3-8.4 19.5-17.9 41.5-41.4 52.2-24.1 11-45 44.8-35.6 72.1 1.3 3.7 5.2 5.1 11.6 4.1 15.7-2.3 43-18 68-38.9 27.4-22.9 44-45.5 44.6-60.5 0.8-20.7 0.4-45.8-9-55.7-2.8-3-6.6-4.6-10.7-4.5l-0.3-0.1z"/> <rect class="st0" x="391.8" y="539" width="435.6" height="353.3"/> <path d="m827.4 539v353.3h-435.6v-353.3h435.6m0-3h-435.6c-1.7 0-3 1.3-3 3v353.3c0 1.7 1.3 3 3 3h435.6c1.7 0 3-1.3 3-3v-353.3c0-1.7-1.4-3-3-3z"/> <rect class="st6" x="419.6" y="570.7" width="381.3" height="283.4"/> <path d="m800.9 570.7v283.4h-381.3v-283.4h381.3m0-3h-381.3c-1.7 0-3 1.3-3 3v283.4c0 1.7 1.3 3 3 3h381.3c1.7 0 3-1.3 3-3v-283.4c0-1.7-1.4-3-3-3z"/> <path class="st1" d="m828.9 892.3h-424c-21.7 0-39.3-17.6-39.3-39.3h502.6c0 21.7-17.6 39.3-39.3 39.3z"/> <path d="m868.2 853c0 21.7-17.6 39.3-39.3 39.3h-424c-21.7 0-39.3-17.6-39.3-39.3h502.6m3-3h-508.7v3c0 23.4 18.9 42.3 42.3 42.3h424.1c23.4 0 42.3-19 42.3-42.3v-3z"/> <path class="st0" d="m669.3 658.1h61.4c14.7 0 26.6 11.9 26.6 26.6v53.6c0 14.7-11.9 26.6-26.6 26.6h-61.4c-14.7 0-26.6-11.9-26.6-26.6v-53.6c0-14.7 11.9-26.6 26.6-26.6z"/> <path d="m730.7 658.1c14.7 0 26.6 11.9 26.6 26.6v53.6c0 14.7-11.9 26.6-26.6 26.6h-61.4c-14.7 0-26.6-11.9-26.6-26.6v-53.6c0-14.7 11.9-26.6 26.6-26.6h61.4m0-3h-61.4c-16.3 0-29.5 13.2-29.6 29.6v53.6c0 16.3 13.2 29.5 29.6 29.6h61.4c16.3 0 29.5-13.2 29.6-29.6v-53.6c-0.1-16.4-13.3-29.6-29.6-29.6z"/> <line class="st7" x1="603.3" x2="457.9" y1="663.7" y2="663.7"/> <path d="m603.3 665.2h-145.4c-0.8 0-1.5-0.7-1.5-1.5s0.7-1.5 1.5-1.5h145.4c0.8 0 1.5 0.7 1.5 1.5s-0.7 1.5-1.5 1.5z"/> <line class="st7" x1="599.9" x2="457.9" y1="702.9" y2="699.5"/> <path d="m599.9 704.4-142-3.4c-0.8 0-1.5-0.7-1.5-1.5s0.7-1.5 1.5-1.5l142 3.3c0.8 0 1.5 0.7 1.5 1.5s-0.7 1.5-1.5 1.6z"/> <line class="st7" x1="603.3" x2="509.4" y1="747.6" y2="747.6"/> <path d="m603.3 749.1h-93.9c-0.8 0-1.5-0.7-1.5-1.5s0.7-1.5 1.5-1.5h93.9c0.8 0 1.5 0.7 1.5 1.5s-0.7 1.5-1.5 1.5z"/> <path d="m358.4 559c-0.7 0-1.4-0.6-1.5-1.3-2.4-17.2 0.7-29.8 9.2-37.4 14.1-12.7 37.5-7 38.5-6.7 0.8 0.2 1.3 1 1.1 1.8s-1 1.3-1.8 1.1c-0.2-0.1-22.9-5.5-35.8 6-7.7 6.9-10.5 18.6-8.2 34.8 0.1 0.8-0.4 1.6-1.3 1.7h-0.2z"/> <path class="st8" d="m423.1 554.5c-0.8 0-1.5-0.7-1.5-1.5s0.7-1.5 1.5-1.5l142-1.1c0.8 0 1.5 0.7 1.5 1.5s-0.7 1.5-1.5 1.5l-142 1.1z"/> <path class="st8" d="m834.6 874.2h-161c-0.8 0-1.5-0.7-1.5-1.5s0.7-1.5 1.5-1.5h161c0.8 0 1.5 0.7 1.5 1.5s-0.7 1.5-1.5 1.5z"/> <path d="m631.1 687.5c-0.8 0-1.5-0.7-1.5-1.5 0.4-20 5.8-33.9 16.1-41.1 13.4-9.5 29.9-4.1 30.6-3.9 0.8 0.2 1.3 1 1.1 1.8s-1 1.3-1.8 1.1c-0.1 0-0.1 0-0.2-0.1-0.2 0-15.8-5.1-28 3.5-9.5 6.7-14.4 19.7-14.8 38.7 0 0.9-0.7 1.5-1.5 1.5z"/> <path class="st8" d="m670.4 751.1c-0.9 0-1.8-0.4-2.4-1-1.4-1.3-1.5-3.5-0.1-4.9l63.7-67.1c1.3-1.4 3.5-1.6 4.9-0.3s1.6 3.5 0.3 4.9l-0.2 0.2-63.7 67.1c-0.6 0.7-1.6 1.1-2.5 1.1z"/> <path class="st8" d="m734.1 751.1c-0.9 0-1.7-0.4-2.4-1l-71.5-67.1c-1.5-1.2-1.7-3.4-0.5-4.9s3.4-1.7 4.9-0.5c0.2 0.1 0.3 0.3 0.4 0.4l71.6 67.1c1.4 1.3 1.5 3.5 0.2 4.9-0.7 0.8-1.7 1.2-2.7 1.1z"/> <line class="st7" x1="754.2" x2="702.8" y1="783.4" y2="783.4"/> <path d="m754.2 784.9h-51.4c-0.8 0-1.5-0.7-1.5-1.5s0.7-1.5 1.5-1.5h51.4c0.8 0 1.5 0.7 1.5 1.5s-0.6 1.5-1.5 1.5z"/> <path class="st2" d="m341.5 424.4c-59.3 55.9-140 57.1-211.9 287.9-29.7 95.3 2.3 141.9 29.1 162.1 36.5 27.5 225.5 35.3 230.3-35.8l31.3-1.1 8.9-88.3h-24.6s-10.6-38.3-56.3-43c-77.1-7.8-137.1 27.3-147.2 30.7"/> <path d="m262.5 895.8c-45.4 0-89-8.4-104.7-20.2-24.4-18.4-60.7-64.1-29.6-163.8 24.8-79.7 52.9-139.1 85.8-181.6 28.8-37.2 57.8-56.9 83.3-74.2 15.3-10.4 29.8-20.2 43.2-32.8 0.6-0.6 1.6-0.5 2.1 0.1s0.5 1.5-0.1 2.1c-13.5 12.8-28.1 22.7-43.5 33.1-52.7 35.8-112.5 76.3-168 254.2-30.5 98 4.8 142.6 28.5 160.5 13.2 9.9 47.1 17.5 86.3 19.2 43.6 1.9 83.3-3.7 108.9-15.4 20.6-9.4 31.6-22.4 32.7-38.5 0.1-0.8 0.7-1.4 1.5-1.4l30-1.1 8.6-85.4h-22.9c-0.7 0-1.3-0.4-1.4-1.1-0.1-0.4-11-37.4-55-41.9-65.4-6.6-118.8 18-138.9 27.2-3.6 1.7-6.2 2.8-7.7 3.4-0.8 0.3-1.6-0.2-1.9-1s0.2-1.6 0.9-1.9c1.4-0.5 3.9-1.6 7.4-3.2 20.3-9.4 74.2-34.2 140.4-27.5 41.8 4.2 55 36.5 57.2 43h23.5c0.4 0 0.8 0.2 1.1 0.5s0.4 0.7 0.4 1.2l-9 88.3c-0.1 0.7-0.7 1.3-1.4 1.3l-30 1.1c-1.7 16.7-13.2 30-34.4 39.7-24.7 11.4-59.5 16.1-93.3 16.1z"/> <path class="st3" d="m383.4 844.8c0.5-26 14.9-72.8 21.6-93.3h20.9l-8.5 83.7-29.6 1.1c-1.3 2.9-2.7 5.8-4.4 8.5z"/> <circle class="st4" cx="315.3" cy="501.2" r="7.9"/> <circle class="st4" cx="233.6" cy="614.1" r="7.9"/> <circle class="st4" cx="307.5" cy="663.3" r="7.9"/> <circle class="st4" cx="149.8" cy="705.8" r="7.9"/> <circle class="st4" cx="225.8" cy="833.3" r="7.9"/> <circle class="st4" cx="299.6" cy="771.8" r="7.9"/> <circle class="st4" cx="315.3" cy="845.6" r="7.9"/> <path class="st8" d="m201.7 753.5c-0.8 0-1.5-0.7-1.5-1.5 0-0.6 0.3-1.1 0.8-1.3 55.2-27.9 89.4-31 108.3-28.7 20.9 2.6 28.5 11.9 28.8 12.3 0.5 0.6 0.5 1.6-0.2 2.1-0.6 0.5-1.6 0.5-2.1-0.2l-0.1-0.1c-0.1-0.1-7.4-8.9-27.2-11.2-18.5-2.2-52 1-106.2 28.4-0.1 0.1-0.4 0.2-0.6 0.2z"/> <path class="st5" d="m428.9 749.8s36.6-108 75.4-42.8l63.8-8.9s25.9 26.1-21 49.4c0 0 5.1 23.5-9.3 40.3 0 0 11.7 17-22.3 40.3s-92.9 9.2-92.9 9.2l6.3-87.5z"/> <path d="m462 843.1c-13.4 0-26.7-1.5-39.7-4.4-0.7-0.2-1.2-0.8-1.1-1.6l6.3-87.5c0-0.1 0-0.3 0.1-0.4 0.9-2.5 21.2-61.8 48.5-64.7 10.3-1.1 20 5.9 29 20.7l62.8-8.7c0.5-0.1 0.9 0.1 1.3 0.4 0.4 0.4 9.4 9.6 7.3 22.3-1.8 10.8-11.1 20.6-27.7 29 0.8 5 3.2 24.5-9.1 39.7 2.1 4.2 7.3 20.4-23.3 41.3-15.8 10.9-36.5 13.9-54.4 13.9zm-37.8-7c8.6 1.8 60.2 11.6 90.5-9.2 32.1-22.1 22.3-37.5 21.9-38.2-0.4-0.6-0.3-1.3 0.1-1.8 13.7-16.1 9-38.8 8.9-39-0.1-0.7 0.2-1.4 0.8-1.7 16.3-8 25.4-17.2 27-27.3 1.6-9.5-4.2-17.1-6-19.2l-63 8.8c-0.6 0.1-1.2-0.2-1.5-0.7-8.5-14.3-17.5-21.1-26.7-20.1-24.7 2.6-44.7 58.8-46 62.5l-6 85.9z"/> <line class="st7" x1="483.3" x2="504.3" y1="712" y2="707.1"/> <path d="m483.3 713.5c-0.8 0.1-1.6-0.5-1.7-1.3s0.5-1.6 1.3-1.7l21-4.9c0.8-0.2 1.6 0.4 1.8 1.2s-0.3 1.5-1.1 1.7l-21 4.9c-0.1 0-0.2 0.1-0.3 0.1z"/> <path d="m498.2 763.6c-2.3 0-4.5-0.1-6.8-0.3-0.8-0.1-1.4-0.9-1.3-1.7s0.9-1.4 1.7-1.3c0.3 0 28 3.4 54-14.3 0.6-0.5 1.6-0.4 2.1 0.2s0.4 1.6-0.2 2.1c-0.1 0-0.1 0.1-0.2 0.1-14.6 9.9-31.8 15.2-49.3 15.2z"/> <path d="m493.7 802.3c-3.2 0-5.3-0.2-5.6-0.2-0.8-0.1-1.4-0.8-1.4-1.6 0.1-0.8 0.8-1.4 1.6-1.4 0.3 0 31.3 2.5 49.3-13.5 0.6-0.6 1.6-0.5 2.1 0.1s0.5 1.6-0.1 2.1c-14.3 12.8-35.8 14.5-45.9 14.5z"/> <path class="st8" d="m473.4 835.6c-12.8 0-20.8-4-21.1-4.1-0.7-0.4-1-1.3-0.7-2 0.4-0.7 1.3-1 2-0.7 0.4 0.2 32.7 15.8 71-18.2 0.6-0.6 1.6-0.5 2.1 0.1s0.5 1.6-0.1 2.1c-20.8 18.5-39.9 22.6-52.2 22.8h-1z"/> <path class="st8" d="m492.2 794.4h-2.5c-0.8 0-1.5-0.7-1.5-1.5s0.7-1.5 1.5-1.5h0.1c0.4 0 40.7 1.2 48.3-15.5 0.3-0.8 1.2-1.2 1.9-0.9s1.2 1.2 0.9 1.9c0 0.1-0.1 0.1-0.1 0.2-7.4 16.1-39.3 17.3-48.6 17.3z"/> <path class="st8" d="m498.9 754.2c-0.8 0.1-1.5-0.6-1.6-1.4s0.6-1.5 1.4-1.6c0.5-0.1 50.6-6.6 64-28.8 0.4-0.7 1.4-0.9 2.1-0.5s0.9 1.4 0.5 2.1c-14.2 23.5-64.1 30-66.2 30.3l-0.2-0.1z"/> <circle class="st0" cx="404" cy="204" r="42.2"/> <path d="m404 161.8c23.3 0 42.2 18.9 42.2 42.2s-18.9 42.2-42.2 42.2-42.2-18.9-42.2-42.2c0-8 2.3-15.9 6.6-22.7 7.7-12.2 21.2-19.5 35.6-19.5m0-3c-25 0-45.2 20.2-45.3 45.2s20.2 45.2 45.2 45.3c25 0 45.2-20.2 45.3-45.2 0-15.5-7.9-29.8-20.9-38.2-7.3-4.6-15.7-7.1-24.3-7.1z"/> <path class="st0" d="m508 346.5s31.8-22.4 22-49.9-16.8-25.9-21-40.7-28.3-31.7-52.4-27.4c0 0-26.8-24.7-53.6-20.6s-37.3 15.6-46.9 35.4-17.9 28-25.1 41.7-19.8 52.7 32.8 87.8 144.2-26.3 144.2-26.3z"/> <path d="m409.2 207.5c24.7 0 47.5 21 47.5 21 2.6-0.5 5.2-0.7 7.9-0.7 21.2 0 40.7 14.9 44.5 28.1 4.2 14.8 11.3 13.3 21 40.7s-22 49.9-22 49.9-55.3 37.1-104.6 37.1c-14.1 0-27.8-3-39.5-10.9-52.6-35.1-40-74.1-32.8-87.8s15.5-22 25.1-41.7 20-31.3 46.9-35.4c1.8-0.2 3.9-0.3 6-0.3m-0.1-3c-2.2 0-4.4 0.2-6.6 0.5-28.1 4.3-39.3 16.8-49.1 37-4.4 8.9-9.4 17.5-15.1 25.6-3.6 5.1-6.9 10.5-9.9 16-6.1 11.6-8.3 24.8-6.3 37.7 3.2 20.2 16.7 38.3 40.1 54 11.3 7.5 25.1 11.4 41.1 11.4 26 0 53.6-10.2 72.1-18.8 11.9-5.4 23.3-11.7 34.3-18.8h0.1c5.8-4.3 11-9.5 15.3-15.3 9.4-12.7 12.1-25.8 7.8-38-5.6-15.7-10.3-22.2-14.1-27.4-3-4.1-5.1-7-6.8-13.1-4-14.3-24.5-30.2-47.4-30.2-2.3 0-4.6 0.2-7 0.5-5-4.3-25.7-20.9-48.4-20.9l-0.1-0.2z"/> <path d="m407.4 307.6h-0.1c-18.8-1.7-35.1-21.6-35.8-22.5-0.5-0.6-0.4-1.6 0.2-2.1s1.6-0.4 2.1 0.2c0.2 0.2 16.3 19.8 33.7 21.4 0.8 0 1.5 0.7 1.4 1.6s-0.7 1.4-1.5 1.4z"/> <path class="st8" d="m407 295.4c-4.3 0-8.5-0.6-12.6-1.8-0.8-0.2-1.3-1-1.1-1.9 0.2-0.8 1-1.3 1.9-1 35.7 9.8 50.6-26 51.2-27.5 0.3-0.8 1.2-1.1 2-0.8s1.1 1.2 0.8 2c-0.2 0.4-12.9 31-42.2 31z"/> <path class="st8" d="m427.6 394.2s69.3 66-29.1 54.8c0 0-20.1 32.4-54.8 14.5s-19-50.3 5.6-58.1c21.3-6.8 78.3-11.2 78.3-11.2z"/> <path d="m364 470.4c-7.3-0.1-14.5-2-21-5.5-14.5-7.5-21.9-18.3-20.8-30.5 1.1-13.2 12.1-25.7 26.7-30.4 21.3-6.8 76.3-11.1 78.6-11.2 0.4 0 0.8 0.1 1.1 0.4 1.3 1.2 30.8 29.6 22.8 46.7-4.9 10.4-22.4 14-52.2 10.8-2.6 3.7-15.1 19.7-35.2 19.7zm63-74.7c-6.5 0.5-57.6 4.8-77.3 11.1-13.2 4.2-23.6 15.9-24.6 27.8-0.9 11 5.9 20.8 19.2 27.6 13.9 7.2 27 7 38.9-0.5 5.5-3.5 10.2-8.1 13.9-13.5 0.3-0.5 0.9-0.8 1.4-0.7 28.5 3.2 45.8 0.1 50-8.9 6.8-14.2-17.7-39.2-21.5-42.9z"/> <path d="m362.4 163.8c-0.8 0-1.5-0.7-1.5-1.5 0-0.2 0-0.3 0.1-0.5 3.4-9.7 9.1-16.4 17-20.1 13.8-6.5 29-1.1 29.6-0.8 0.8 0.3 1.1 1.2 0.8 2-0.3 0.7-1.1 1-1.8 0.8-0.1-0.1-14.7-5.2-27.4 0.7-7.1 3.3-12.2 9.5-15.4 18.4-0.2 0.6-0.8 1-1.4 1z"/> <path class="st8" d="m376.1 192.3c-0.8 0-1.5-0.7-1.5-1.5 0-0.3 0.1-0.5 0.2-0.7 5.2-9.6 11.9-15.4 20.1-17.4 13.3-3.2 25.3 5 25.8 5.4 0.7 0.5 0.9 1.4 0.4 2.1s-1.4 0.9-2.1 0.4c-0.1-0.1-11.5-7.8-23.4-4.9-7.3 1.8-13.4 7.1-18.2 15.9-0.3 0.4-0.8 0.7-1.3 0.7z"/> <path class="st5" d="m423.7 404.1v16.8s-29.1 43.6-85 7.8c0 0 27.4-39.4 42.1-86.2 0 0-20.7-5.6-16.5-24.2s19.5-21 28.1-15.5c0 0 33.5 26 72.6-44.7 0 0 36.2 17 41.9 55.6s-4 82.4-34 93.6-49.2-3.2-49.2-3.2z"/> <path d="m465 258.2s36.2 17 41.9 55.6-4 82.4-34 93.6c-7.1 2.8-14.7 4.2-22.4 4.3-16.8 0-26.9-7.5-26.9-7.5v16.8s-14.6 21.9-43.1 21.9c-11.7 0-25.7-3.7-41.9-14.1 0 0 27.4-39.4 42.1-86.2 0 0-20.7-5.6-16.5-24.2 3-13 11.3-18 19-18 3.2 0 6.4 0.9 9.1 2.6 0 0 6 4.6 15.9 4.6 13.6 0 34.3-8.7 56.8-49.4m0-3c-1.1 0-2.1 0.6-2.6 1.5-21.8 39.5-41.5 47.8-54 47.8-5 0.1-9.9-1.3-14.1-4l-0.2-0.1c-3.2-2-6.9-3.1-10.7-3.1-8.4 0-18.5 5.4-21.9 20.4-2 8.8 0.6 16.4 7.7 22 2.4 1.9 5.1 3.5 8 4.6-14.6 44.6-40.6 82.3-40.9 82.6-0.5 0.7-0.6 1.5-0.5 2.3 0.2 0.8 0.6 1.5 1.3 1.9 15.1 9.7 29.8 14.6 43.5 14.6 29.7 0 44.9-22.3 45.5-23.3 0.3-0.5 0.5-1.1 0.5-1.7v-11.5c7.4 3.6 15.6 5.4 23.9 5.3 8-0.1 15.9-1.6 23.4-4.4 14.8-5.6 25.9-18.9 32.2-38.5 5.5-17.1 6.8-37.9 3.7-58.4-2.4-16.5-10.8-31.7-24-44-5.8-5.5-12.4-10.2-19.6-13.8-0.3-0.1-0.7-0.2-1.2-0.2z"/> <path d="m424.3 407.3c-0.2 0-0.3 0-0.5-0.1-17-5.7-29.4-23.6-29.9-24.4-0.5-0.7-0.3-1.6 0.4-2.1s1.6-0.3 2.1 0.4c0.1 0.2 12.3 17.9 28.4 23.2 0.8 0.2 1.2 1.1 1 1.9-0.3 0.7-0.9 1.1-1.5 1.1z"/> <path d="m381.4 333.7c-0.6 0-1.1-0.3-1.4-0.7-3.8-7.1-4.5-12.9-2-17.2 3.5-6.1 12.1-6.5 12.5-6.5 0.8 0 1.5 0.6 1.5 1.4s-0.6 1.5-1.4 1.6c-0.1 0-7.3 0.4-10 5-1.9 3.3-1.2 8.1 2.1 14.2 0.4 0.7 0.1 1.6-0.6 2-0.2 0.2-0.5 0.2-0.7 0.2z"/> <path class="st9" d="m463.4 315.1c-21.7 1.6-48.8-11.5-54.7-4.6s-3.5 17.5 7.5 21.5 22.5 5.2 45.9 6.5 46.5 0.9 45.5-11.9-12.3-13.9-44.2-11.5z"/> <path d="m488.4 319.8h-0.1c-9.3-0.9-14.9-10.1-15.1-10.5-0.4-0.7-0.2-1.6 0.6-2 0.7-0.4 1.6-0.2 2 0.5 0.1 0.1 5 8.2 12.8 9 0.8 0 1.5 0.7 1.4 1.6-0.1 0.8-0.8 1.5-1.6 1.4z"/> <path d="m465.7 354c-0.7 0-1.3-0.5-1.5-1.2l-7.1-34.4c-0.2-0.8 0.4-1.6 1.2-1.8s1.6 0.4 1.8 1.2l7.1 34.4c0.2 0.8-0.3 1.6-1.1 1.8h-0.4z"/> <circle class="st2" cx="372.3" cy="341.4" r="6.9"/> <path d="m372.3 334.5c1.3 0 2.6 0.4 3.7 1.1 3.2 2.1 4.2 6.3 2.1 9.5-1.3 2-3.5 3.2-5.8 3.2-1.3 0-2.6-0.4-3.7-1.1-3.2-2.1-4.2-6.3-2.1-9.5 1.3-2 3.5-3.2 5.8-3.2m0-3c-5.5 0-9.9 4.4-9.9 9.9s4.4 9.9 9.9 9.9 9.9-4.4 9.9-9.9c0-3.4-1.7-6.5-4.6-8.4-1.5-1-3.4-1.5-5.3-1.5z"/> <circle cx="428.9" cy="328.3" r="3.9"/> <circle cx="482.5" cy="331.7" r="3.9"/> <path d="m450.1 381.2c-0.5 0-0.9-0.2-1.2-0.6-7.3-10.4-28.9-9.6-29.1-9.5-0.8 0-1.5-0.6-1.6-1.4s0.6-1.5 1.4-1.6c1 0 23.5-0.9 31.7 10.8 0.5 0.6 0.4 1.6-0.3 2.1h-0.1c-0.2 0.2-0.5 0.3-0.8 0.2z"/> <path d="m434.2 314.5c-0.8 0.1-1.6-0.5-1.6-1.4s0.5-1.6 1.4-1.6c0.1 0 12.2-2.2 13.5-9.6 0.1-0.8 0.9-1.4 1.8-1.2 0.8 0.1 1.4 0.9 1.2 1.8-1.7 9.5-15.4 12-16 12h-0.3z"/> <path class="st8" d="m348.2 425.9c-0.4 0-0.7-0.1-1-0.4-0.6-0.5-0.7-1.5-0.1-2.1 15.3-17.5 30.9-55.1 31-55.5 0.3-0.8 1.2-1.1 2-0.8 0.7 0.3 1.1 1.2 0.8 1.9-0.6 1.6-15.9 38.5-31.6 56.3-0.3 0.4-0.7 0.6-1.1 0.6z"/> <path class="st5" d="m825.1 641.6s-44.8 26.7-22.3 54.9 58.1 5.8 58.3-26.9-25.2-45.5-37.3-58.2"/> <path d="m826.7 711c-9.3 0-18.1-4.6-25.1-13.5-5.6-7-7.7-14.5-6.2-22.3 3.6-19.6 27.9-34.2 28.9-34.9 0.7-0.4 1.6-0.2 2.1 0.5 0.4 0.7 0.2 1.6-0.5 2.1-0.2 0.1-24.2 14.6-27.5 32.8-1.3 6.9 0.6 13.6 5.6 19.9 8.6 10.8 20.1 14.8 31.5 10.8 14.1-4.9 24-20 24.1-36.8 0.1-25.2-15.3-38.3-27.8-48.9-3.3-2.8-6.5-5.5-9.1-8.2-0.6-0.6-0.6-1.6 0-2.1s1.6-0.6 2.1 0c2.5 2.6 5.6 5.2 8.9 8 12.9 11 29 24.6 28.8 51.2-0.1 18-10.8 34.3-26.1 39.6-3.1 1.2-6.3 1.8-9.7 1.8z"/> <path class="st5" d="m830.6 589.5s-44.8 26.7-22.3 54.9 58.1 5.8 58.3-26.9-25.2-45.5-37.3-58.2"/> <path d="m832.3 658.8c-9.3 0-18.1-4.6-25.1-13.5-5.6-7-7.7-14.5-6.2-22.3 3.6-19.6 27.9-34.2 28.9-34.9 0.7-0.4 1.6-0.2 2 0.6 0.4 0.7 0.2 1.6-0.5 2-0.2 0.2-24.2 14.6-27.5 32.8-1.3 6.9 0.6 13.6 5.6 19.9 8.6 10.8 20.1 14.8 31.5 10.8 14.1-4.9 24-20 24.1-36.8 0.1-25.1-15.3-38.3-27.8-48.9-3.3-2.8-6.5-5.5-9.1-8.2-0.6-0.6-0.6-1.5 0-2.1s1.5-0.6 2.1 0c2.5 2.6 5.6 5.2 8.9 8 12.9 11 29 24.6 28.8 51.2-0.1 18-10.8 34.3-26.1 39.6-3 1.2-6.3 1.8-9.6 1.8z"/> <path class="st5" d="m827.8 545.5s-44.8 26.6-22.3 54.9 58.1 5.8 58.3-26.9-21.3-32.3-36.9-36.1"/> <path d="m829.5 614.8c-9.3 0-18.1-4.6-25.1-13.5-5.6-7-7.7-14.5-6.2-22.3 3.6-19.6 27.9-34.2 28.9-34.8 0.7-0.4 1.6-0.2 2.1 0.5 0.4 0.7 0.2 1.6-0.5 2.1-0.2 0.1-24.2 14.6-27.5 32.8-1.3 6.9 0.6 13.6 5.6 19.9 8.6 10.8 20.1 14.8 31.5 10.8 14.1-4.9 24-20 24.1-36.8 0.1-27.3-14.9-30.4-29.5-33.3-2.2-0.4-4.2-0.8-6.2-1.3-0.8-0.2-1.3-1-1.2-1.8 0.2-0.8 1-1.3 1.8-1.2h0.1c1.9 0.5 4 0.9 6.1 1.3 14.3 2.9 32.1 6.5 31.9 36.3-0.1 18-10.8 34.3-26.1 39.6-3.2 1.1-6.5 1.7-9.8 1.7z"/> <path class="st8" d="m826.8 693.5c-0.8 0-1.5-0.7-1.5-1.5s0.7-1.5 1.5-1.5c1.1 0 26.9-0.7 28.4-32.4 0.1-0.8 0.7-1.5 1.6-1.4 0.8 0 1.5 0.7 1.4 1.6-1.6 34.5-31 35.2-31.4 35.2z"/> <path class="st8" d="m829.4 652.8c-0.8 0.1-1.5-0.6-1.6-1.4s0.6-1.5 1.4-1.6c1-0.2 25.9-4 30.4-31.8 0.1-0.8 0.9-1.4 1.7-1.3s1.4 0.9 1.3 1.7c-4.8 30-32.6 34.2-32.9 34.3l-0.3 0.1z"/> <path class="st8" d="m822.1 601.9h-0.3c-0.8 0-1.5-0.7-1.5-1.5s0.7-1.5 1.5-1.4c1.3 0 31.1 0.7 35.2-29.5 0.1-0.8 0.9-1.4 1.7-1.3s1.4 0.9 1.3 1.7c-4.2 31.1-34.4 32-37.9 32z"/> <path d="m879.5 575.8h-0.4c-0.8-0.2-1.2-1.1-1-1.8 4.9-17.5 0.8-32-12.2-43.3-6.3-5.3-13.6-9.4-21.5-11.9-0.8-0.2-1.3-1-1.1-1.8s1-1.3 1.8-1.1h0.2c0.5 0.1 48.3 14.3 35.7 58.9-0.2 0.6-0.9 1-1.5 1z"/> </svg>