<?xml version="1.0" encoding="utf-8"?>
<!-- Generator: Adobe Illustrator 24.1.1, SVG Export Plug-In . SVG Version: 6.00 Build 0)  -->
<svg version="1.1" id="Layer_1" xmlns="http://www.w3.org/2000/svg" xmlns:xlink="http://www.w3.org/1999/xlink" x="0px" y="0px"
	 viewBox="0 0 512 512" style="enable-background:new 0 0 512 512;" xml:space="preserve">
<g>
	<path d="M437.3,138.7H384V20.5C384,9.2,374.5,0,362.7,0c-11.8,0-21.3,9.2-21.3,20.5v118.2H170.7V20.5c0-11.3-9.5-20.5-21.3-20.5
		C137.5,0,128,9.2,128,20.5v118.2H74.7c-5.9,0-10.7,9.3-10.7,14.9v51.2c0,61.4,106.7,132.8,106.7,231.4v33.1h42.7V512h85.3v-42.7
		h42.7v-33.1c0-98.7,106.7-170,106.7-231.4v-51.2C448,147.9,443.2,138.7,437.3,138.7 M244.3,313.5c0.7-2.2-0.7-4.1-3.2-4.1h-41.4
		c-2.5,0-3.1-1.4-1.6-3.2c0,0,85.4-108.4,87-110.5c1.3-2,2.6-1.3,2.2,1c-0.7,2.9-18.9,76.8-18.9,76.8c-0.9,2.2,0.4,3.8,2.8,3.8h41.5
		c2.4,0,3.2,1.6,1.7,3.5c0,0-85.5,111-87,112.8c-1.5,1.9-3,1.3-2.2-1.9C226.1,388.6,244.3,313.5,244.3,313.5"/>
</g>
</svg>
